<?xml version="1.0" encoding="iso-8859-1"?>
<!-- Generator: Adobe Illustrator 19.1.1, SVG Export Plug-In . SVG Version: 6.00 Build 0)  -->
<svg version="1.1" id="Layer_1" xmlns="http://www.w3.org/2000/svg" xmlns:xlink="http://www.w3.org/1999/xlink" x="0px" y="0px"
	 viewBox="0 0 40 40" style="enable-background:new 0 0 40 40;" xml:space="preserve">
<g>
	<path style="fill:#B08159;" d="M5.5,38.5V17C5.5,8.869,11.869,2.5,20,2.5S34.5,8.869,34.5,17v21.5H5.5z"/>
	<g>
		<path style="fill:#A16A4A;" d="M20,3c7.85,0,14,6.15,14,14v21H6V17C6,9.15,12.15,3,20,3 M20,2C11.6,2,5,8.64,5,17v22h30V17
			C35,8.64,28.4,2,20,2L20,2z"/>
	</g>
</g>
<g>
	<rect x="9.5" y="18.5" style="fill:#B08159;" width="21" height="20"/>
	<g>
		<path style="fill:#A16A4A;" d="M30,19v19H10V19H30 M31,18H9v21h22V18L31,18z"/>
	</g>
</g>
<path style="fill:#A16A4A;" d="M30.928,16C31,17.204,31,18.433,31,19.636C31,26.085,26.16,36,20,36c-6.16,0-11-9.915-11-16.364
	C9,18.427,9,17.199,9.07,16H8.072C8.001,17.226,8,18.457,8,19.636C8,26.467,13.153,37,20,37s12-10.533,12-17.364
	c0-1.179-0.001-2.41-0.072-3.636H30.928z"/>
<g>
	<path style="fill:#A6714E;" d="M19.998,7.5c-0.274,0-0.498-0.223-0.498-0.498V2.031c0-0.274,0.223-0.498,0.498-0.498
		c0.279,0,0.502,0.223,0.502,0.498v4.972c0,0.274-0.223,0.498-0.498,0.498H19.998z"/>
	<path style="fill:#A16A4A;" d="M20,2.033v4.969l-0.002-4.969H20 M20.002,1.033h-0.005C19.449,1.033,19,1.482,19,2.031v4.971
		C19,7.551,19.449,8,19.998,8h0.005C20.551,8,21,7.551,21,7.002V2.031C21,1.482,20.551,1.033,20.002,1.033L20.002,1.033z"/>
</g>
<g>
	<path style="fill:#A6714E;" d="M14.998,8.5c-0.274,0-0.498-0.223-0.498-0.498V3.031c0-0.274,0.223-0.498,0.498-0.498
		c0.279,0,0.502,0.223,0.502,0.498v4.971c0,0.274-0.223,0.498-0.498,0.498H14.998z"/>
	<path style="fill:#A16A4A;" d="M15,3.033v4.969l-0.002-4.969H15 M15.002,2.033h-0.005C14.449,2.033,14,2.482,14,3.031v4.971
		C14,8.551,14.449,9,14.998,9h0.005C15.551,9,16,8.551,16,8.002V3.031C16,2.482,15.551,2.033,15.002,2.033L15.002,2.033z"/>
</g>
<g>
	<path style="fill:#A6714E;" d="M24.998,8.5c-0.274,0-0.498-0.223-0.498-0.498V3.031c0-0.274,0.223-0.498,0.498-0.498
		c0.279,0,0.502,0.223,0.502,0.498v4.971c0,0.274-0.223,0.498-0.498,0.498H24.998z"/>
	<path style="fill:#A16A4A;" d="M25,3.033v4.969l-0.002-4.969H25 M25.002,2.033h-0.005C24.449,2.033,24,2.482,24,3.031v4.971
		C24,8.551,24.449,9,24.998,9h0.005C25.551,9,26,8.551,26,8.002V3.031C26,2.482,25.551,2.033,25.002,2.033L25.002,2.033z"/>
</g>
<g>
	<rect x="15.909" y="32.214" style="fill:#7496C4;" width="8.182" height="6.786"/>
</g>
<rect x="31" y="33" style="fill:#FFEEA3;" width="4" height="1"/>
<rect x="5" y="33" style="fill:#FFEEA3;" width="4" height="1"/>
<rect x="5" y="30" style="fill:#F5CE85;" width="4" height="1"/>
<rect x="31" y="30" style="fill:#F5CE85;" width="4" height="1"/>
<rect x="26" y="37" style="fill:#B08159;" width="4" height="2"/>
<rect x="31" y="37" style="fill:#B08159;" width="3" height="2"/>
<rect x="6" y="37" style="fill:#B08159;" width="3" height="2"/>
<rect x="10" y="37" style="fill:#B08159;" width="4" height="2"/>
<rect x="31" y="36" style="fill:#F5CE85;" width="4" height="1"/>
<rect x="5" y="36" style="fill:#F5CE85;" width="4" height="1"/>
<path style="fill:#C2E8FF;" d="M31,21c1.043,0,1-2,1-2c0-3.054,3-7.143,3-7.143V11c-4.602,0-6.818,4.071-6.818,4.071L31,21z"/>
<path style="fill:#4E7AB5;" d="M29.626,14.836c0.482-0.691,1.661-1.965,3.563-2.561C34.403,12.042,35,12,35,12v-1
	c-4.602,0-6.818,4.071-6.818,4.071L29.626,14.836z"/>
<path style="fill:#C2E8FF;" d="M9,21c-1.035,0-1-2-1-2c0-3.054-3-7.143-3-7.143V11c4.602,0,6.818,4.071,6.818,4.071L9,21z"/>
<path style="fill:#4E7AB5;" d="M10.374,14.979c-0.482-0.691-1.661-2.108-3.563-2.704C5.597,12.042,5,12,5,12v-1
	c4.602,0,6.818,4.071,6.818,4.071L10.374,14.979z"/>
<g>
	<rect x="14.5" y="19.143" style="fill:#7496C4;" width="11" height="19.357"/>
	<g>
		<path style="fill:#A16A4A;" d="M25,19.643V38H15V19.643H25 M26,18.643H14V39h12V18.643L26,18.643z"/>
	</g>
</g>
<path style="fill:#8BB7F0;" d="M9,19.636C9,26.085,13.84,36,20,36s11-9.915,11-16.364S31,6,20,6S9,13.103,9,19.636z"/>
<g>
	<path style="fill:#4E7AB5;" d="M16,30.333c0,0,1.389,2.667,4,2.667s4-2.667,4-2.667L21,29h-2L16,30.333z"/>
</g>
<g>
	<path style="fill:#7496C4;" d="M23.5,20c0-3.084,2.456-3.476,3.512-3.5l0.102-0.001c1.368,0,2.697,0.646,3.387,1.323V18
		c0.007,0.101,0.107,1.338-0.946,2.492c-1.133,1.242-3.22,1.93-6.054,2.001V20z"/>
	<path style="fill:#4E7AB5;" d="M27.114,16.999c1.141,0,2.246,0.492,2.887,1.042l0,0.012l0.003,0.038
		c0.003,0.044,0.074,1.099-0.837,2.083c-0.976,1.054-2.751,1.67-5.168,1.8V20c0-2.549,1.894-2.974,3.024-3L27.114,16.999
		 M27.114,15.999c-0.038,0-0.076,0-0.114,0.001c-1.914,0.045-4,1.06-4,4v3c8.523,0,8-5,8-5v-0.378
		C30.246,16.774,28.702,15.999,27.114,15.999L27.114,15.999z"/>
</g>
<g>
	<circle style="fill:#FFEEA3;" cx="27" cy="19" r="2"/>
</g>
<g>
	<circle style="fill:#704E34;" cx="27" cy="19" r="1"/>
</g>
<g>
	<path style="fill:#7496C4;" d="M23.5,20c0-3.084,2.456-3.476,3.512-3.5c0.001,0,0.002,0,0.003,0c1.184,0,2.292,0.437,3.039,0.971
		c-1.609,0.042-4.692,0.516-6.554,3.318V20z"/>
	<path style="fill:#4E7AB5;" d="M27.111,16.999c0.409,0,0.814,0.065,1.196,0.175c-1.311,0.267-2.929,0.865-4.262,2.183
		c0.293-1.979,1.952-2.333,2.979-2.357L27.111,16.999 M27.111,15.999c-0.037,0-0.074,0-0.111,0.001c-1.914,0.045-4,1.06-4,4v3
		c1.471-4.561,5.641-5.032,7.303-5.032C30.737,17.968,31,18,31,18v-0.356C30.246,16.796,28.7,15.999,27.111,15.999L27.111,15.999z"
		/>
</g>
<g>
	<path style="fill:#7496C4;" d="M16.506,22.494c-2.834-0.071-4.921-0.76-6.054-2.001c-1.053-1.154-0.953-2.391-0.948-2.443
		l0.001-0.227c0.689-0.678,2.019-1.324,3.388-1.324l0.102,0.001c1.056,0.024,3.512,0.416,3.512,3.5V22.494z"/>
	<path style="fill:#4E7AB5;" d="M12.893,16.999L12.983,17c1.129,0.026,3.023,0.451,3.023,3v1.974c-2.417-0.13-4.192-0.746-5.168-1.8
		c-0.91-0.983-0.84-2.038-0.838-2.07l0.005-0.052V18.04C10.648,17.49,11.752,16.999,12.893,16.999 M12.893,15.999
		c-1.588,0-3.132,0.775-3.886,1.623V18c0,0-0.523,5,8,5v-3c0-2.94-2.086-3.955-4-4C12.968,15.999,12.93,15.999,12.893,15.999
		L12.893,15.999z"/>
</g>
<g>
	<circle style="fill:#FFEEA3;" cx="13.006" cy="19" r="2"/>
</g>
<g>
	<circle style="fill:#704E34;" cx="13.006" cy="19" r="1"/>
</g>
<g>
	<path style="fill:#7496C4;" d="M16.506,20.789c-1.862-2.803-4.946-3.276-6.555-3.318c0.743-0.535,1.835-0.973,2.944-0.973
		c1.154,0.026,3.61,0.417,3.61,3.501V20.789z"/>
	<path style="fill:#4E7AB5;" d="M12.896,16.999L12.983,17c1.027,0.024,2.685,0.378,2.979,2.357
		c-1.333-1.318-2.951-1.916-4.262-2.183C12.081,17.064,12.487,16.999,12.896,16.999 M12.896,15.999
		c-1.589,0-3.135,0.797-3.889,1.645V18c0,0,0.263-0.032,0.697-0.032c1.662,0,5.833,0.471,7.303,5.032v-3c0-2.94-2.086-3.955-4-4
		C12.969,15.999,12.932,15.999,12.896,15.999L12.896,15.999z"/>
</g>
<rect x="15" y="37" style="fill:#7496C4;" width="10" height="2"/>
<path style="fill:#C2E8FF;" d="M20,6C10.402,6,9.139,11.901,9,17.644c0.763-0.876,2.358-1.683,4-1.644c1.914,0.045,4,1.059,4,4v5
	c0,0,0.455,2,3,2s3-2,3-2v-5c0-2.941,2.086-3.955,4-4c1.642-0.039,3.237,0.768,4,1.644C30.859,11.951,29.585,6,20,6z"/>
<path style="fill:#FFFFFF;" d="M22,6.689c-0.317-0.06-0.648-0.109-1-0.138V16h1V6.689z"/>
<path style="fill:#FFFFFF;" d="M28,9.646C27.7,9.402,27.363,9.19,27,9v3.927h1V9.646z"/>
<path style="fill:#FFFFFF;" d="M19,6.55c-0.352,0.029-0.683,0.077-1,0.137V16h1V6.55z"/>
<path style="fill:#FFFFFF;" d="M12,9.64V13h1V9C12.637,9.188,12.3,9.398,12,9.64z"/>
<rect x="15" y="8" style="fill:#FFFFFF;" width="1" height="6"/>
<rect x="24" y="8" style="fill:#FFFFFF;" width="1" height="6"/>
<g>
	<polygon style="fill:#4E7AB5;" points="17,25 17,26 20,28 23,26 23,25 	"/>
</g>
<path style="fill:#8BB7F0;" d="M10.033,16.814C10.217,11.467,11.47,7,20,7c8.53,0,9.783,4.467,9.967,9.814
	c0.411,0.246,0.763,0.527,1.02,0.818C30.883,11.785,29.868,6,20,6C10.119,6,9.115,11.731,9.012,17.632
	C9.269,17.341,9.621,17.06,10.033,16.814z"/>
</svg>
