<svg xmlns="http://www.w3.org/2000/svg" xmlns:xlink="http://www.w3.org/1999/xlink" viewBox="0 0 1200 1200"><defs><style>.cls-1{isolation:isolate;}.cls-2{fill:#ebe9f0;}.cls-3{fill:#fff;}.cls-4{fill:#98a39f;}.cls-5{fill:#99d8f4;}.cls-6{fill:#f2f2f2;}.cls-7{fill:#cedbff;}.cls-8,.cls-9{fill:#f4908c;}.cls-34,.cls-37,.cls-9{font-size:24.57px;font-family:Lato-Bold, Lato;font-weight:700;letter-spacing:0.1em;}.cls-10{letter-spacing:0.12em;}.cls-11{letter-spacing:0.05em;}.cls-12{letter-spacing:0.1em;}.cls-13{letter-spacing:0.12em;}.cls-14{letter-spacing:0.09em;}.cls-15{fill:#a2ccd7;}.cls-16{fill:#70c3e0;}.cls-17{fill:#99d9f6;}.cls-18{fill:#c9cac9;}.cls-19{fill:#979897;}.cls-20{fill:#838483;}.cls-21{fill:#231e54;}.cls-22{fill:#f184b4;}.cls-23{fill:#292664;}.cls-24{fill:#181720;}.cls-25{fill:#df7ba7;}.cls-26{fill:#262432;}.cls-27{fill:#1a4b96;}.cls-28{fill:#e57fb0;}.cls-29{fill:#ecec9d;}.cls-30{fill:#e2e3e4;}.cls-31{fill:#9298a2;}.cls-32{fill:#f184b5;}.cls-33{fill:#1a4b97;}.cls-34,.cls-35{mix-blend-mode:soft-light;}.cls-35{fill:url(#linear-gradient);}.cls-36{opacity:0.35;}.cls-36,.cls-38{mix-blend-mode:overlay;}.cls-38{opacity:0.25;fill:url(#linear-gradient-2);}.cls-39{fill:none;}</style><linearGradient id="linear-gradient" x1="600.72" y1="276.34" x2="600.72" y2="1131.32" gradientUnits="userSpaceOnUse"><stop offset="0" stop-color="#c57db2"/><stop offset="1" stop-color="#56bc80"/></linearGradient><linearGradient id="linear-gradient-2" x1="571.51" y1="968.2" x2="571.51" y2="101.95" gradientUnits="userSpaceOnUse"><stop offset="0" stop-color="#fef1ef"/><stop offset="1" stop-color="#fead9c"/></linearGradient></defs><g class="cls-1"><g id="Layer_1" data-name="Layer 1"><path class="cls-2" d="M128.93,789.69c-22.79-57.61-9-132.7,43.4-165.71,22-13.84,49.93-20.53,64.83-41.82,33.06-52.56-30.69-147.57-22.66-216C211,250,252,198.31,393.91,188.13s233.52,74.94,265.74,93.75C730.26,323.1,822.13,279.2,901,300.64,971.17,319.7,1020.49,396.19,1008.9,468c-9.45,58.49-53.5,112.47-41.85,170.56,30.9,106,199.69,160.38,60,285.72-73,51.6-168,33.79-252.07,38.61-60.37,3.67-119.25,19.28-178.35,32.12-120.09,32-253.31,27.64-339.43-71.71C209.44,879.05,154.62,854.63,128.93,789.69Z"/><path class="cls-3" d="M918.71,288V915.11a26.37,26.37,0,0,1-26.37,26.37H307.66a26.37,26.37,0,0,1-26.37-26.37V288a26.37,26.37,0,0,1,26.37-26.37H892.34A26.37,26.37,0,0,1,918.71,288Z"/><path class="cls-4" d="M892.34,261.59A26.37,26.37,0,0,1,918.71,288V915.11a26.37,26.37,0,0,1-26.37,26.37H307.66a26.37,26.37,0,0,1-26.37-26.37V288a26.37,26.37,0,0,1,26.37-26.37H892.34m0-4.1H307.66A30.51,30.51,0,0,0,277.19,288V915.11a30.5,30.5,0,0,0,30.47,30.46H892.34a30.5,30.5,0,0,0,30.47-30.46V288a30.51,30.51,0,0,0-30.47-30.47Z"/><path class="cls-5" d="M918.71,288v9.67H281.29V288a26.37,26.37,0,0,1,26.37-26.37H892.34A26.37,26.37,0,0,1,918.71,288Z"/><circle class="cls-6" cx="333.13" cy="279.61" r="5.21"/><circle class="cls-7" cx="318.25" cy="279.61" r="5.21"/><circle class="cls-8" cx="303.36" cy="279.61" r="5.21"/><text class="cls-9" transform="translate(532.45 355.81)">C<tspan class="cls-10" x="18.82" y="0">ON</tspan><tspan class="cls-11" x="63.51" y="0">T</tspan><tspan class="cls-12" x="79.47" y="0">A</tspan><tspan class="cls-13" x="98.96" y="0">C</tspan><tspan class="cls-14" x="118.16" y="0">T</tspan></text><rect class="cls-6" x="363.43" y="427.45" width="473.14" height="48.96"/><path class="cls-15" d="M836.57,427.45v49H363.43v-49H836.57M839,425H361v53.88H839V425Z"/><rect class="cls-15" x="363.43" y="382.01" width="128.44" height="16.51"/><rect class="cls-6" x="363.43" y="552.2" width="473.14" height="48.96"/><path class="cls-15" d="M836.57,552.2v49H363.43v-49H836.57m2.46-2.46H361v53.87H839V549.74Z"/><rect class="cls-15" x="363.43" y="515.28" width="128.44" height="16.51"/><rect class="cls-6" x="363.43" y="683.46" width="473.14" height="166.26"/><path class="cls-15" d="M836.57,683.46V849.72H363.43V683.46H836.57M839,681H361V852.18H839V681Z"/><rect class="cls-15" x="363.43" y="640.03" width="128.44" height="16.51"/><rect class="cls-5" x="535.41" y="878.09" width="129.18" height="34.52" rx="17.26"/><rect class="cls-3" x="569.39" y="889.1" width="61.23" height="12.51"/><path class="cls-16" d="M220.25,737.67c-.85-19,15.37-36.78,36.77-40.07,1.37-.21,2.73-.35,4.08-.44,17.09-1.08,32.83,7.61,38.48,22.2l26.52,68.53c10,25.78-5.24,55.2-32.92,61.88-1.34.32-2.7.59-4.08.8a44.61,44.61,0,0,1-50.72-33.78l-17.3-73.16A32.26,32.26,0,0,1,220.25,737.67Z"/><path class="cls-17" d="M228.4,736.43c-.79-17.79,13.35-34.5,32.7-39.27,17.09-1.08,32.83,7.61,38.48,22.2l26.52,68.53c10,25.78-5.24,55.2-32.92,61.88a44.52,44.52,0,0,1-46.65-34.24l-17.3-73.15A32.27,32.27,0,0,1,228.4,736.43Z"/><rect class="cls-18" x="309.03" y="861.93" width="13.74" height="76.62"/><rect class="cls-19" x="319.22" y="861.93" width="3.54" height="76.62"/><rect class="cls-20" x="306.45" y="863.24" width="18.58" height="16.61"/><circle class="cls-19" cx="274.1" cy="951.05" r="8.42"/><circle class="cls-18" cx="274.57" cy="951.97" r="6.36"/><circle class="cls-19" cx="358.85" cy="951.05" r="8.42"/><circle class="cls-18" cx="359.28" cy="951.97" r="6.36"/><path class="cls-18" d="M274.59,936.75h83.77a8.91,8.91,0,0,1,8.91,8.91v0a0,0,0,0,1,0,0H265.69a0,0,0,0,1,0,0v0a8.91,8.91,0,0,1,8.91-8.91Z"/><path class="cls-16" d="M374.77,861.72c12.64-7.52,9-17,2-21.62S324,833,310.07,834.48s-62.77,3.68-49.92,26.09C269.14,876.25,362.12,869.24,374.77,861.72Z"/><path class="cls-21" d="M464.57,869.12l9.68,4.64L486.59,837c-8.47-4.17-18.34,21.18-18.34,21.18Z"/><path class="cls-22" d="M446.08,859.32l23.26,16.45-6,10.35L441,871.41a1.61,1.61,0,0,1-.64-1.87l3.49-9.57A1.42,1.42,0,0,1,446.08,859.32Z"/><path class="cls-23" d="M460,884l9.6,6.24,20.8-35.61c-8.47-5.5-24.25,18.84-24.25,18.84Z"/><path class="cls-24" d="M461.29,858.94l-6.72,11.79-6.72,11.79-71.23-48-101.08,9-4.35-37.34c-.14-1.42.29-2.65,1.66-3l64.4-18.77,62,25.92Z"/><path class="cls-25" d="M449.34,859l3.15-6.27a2.12,2.12,0,0,1,3-.87L470.7,860l-3.61,10.73-16.42-8A2.81,2.81,0,0,1,449.34,859Z"/><path class="cls-26" d="M329,802.62l52.4,11.73,81.67,33.27-6.14,11.13-6.16,11.17-65.45-20.15s-102.82,3-109.73-5.42-4.42-39.45-4.42-39.45"/><path class="cls-27" d="M265.86,660.17l14-3.2a17.94,17.94,0,0,1,21,12.73l3.83,14a16.17,16.17,0,0,1-12,20.3l-14,3.2a17.94,17.94,0,0,1-21-12.73l-3.84-14a16.19,16.19,0,0,1,12-20.31"/><path class="cls-22" d="M279.12,737.71c8.43-1,16.89-1.77,25.35-2.54-3.29-13.07-6.38-26.17-9.64-39.23q-9.88,1.38-19.78,2.73c1.5,13,2.83,26,4.07,39"/><path class="cls-22" d="M302.54,706.61l-4.28,1c-9.65,2.21-28.94-1.69-31.59-11.36l-2.49-9.08a17.13,17.13,0,0,1,12.68-21.51l4.28-1a19,19,0,0,1,22.29,13.49l2.49,9.08c2.66,9.66,6.28,17.16-3.38,19.38"/><path class="cls-27" d="M284,678l16,.23A9,9,0,0,0,309.2,669a10,10,0,0,0-9.75-9.53l-16-.23a9,9,0,0,0-9.21,9.26A9.93,9.93,0,0,0,284,678"/><path class="cls-27" d="M271.57,684.14l4.13-2.41a9.12,9.12,0,0,0,2.93-12.83,9.78,9.78,0,0,0-13.09-3.45l-4.13,2.42a9.11,9.11,0,0,0-2.93,12.82,9.77,9.77,0,0,0,13.09,3.45"/><path class="cls-22" d="M273.38,692a7.41,7.41,0,0,1-6.24,9.75,9.94,9.94,0,0,1-11.06-7,7.42,7.42,0,0,1,6.24-9.76,9.93,9.93,0,0,1,11.06,7"/><path class="cls-22" d="M368.5,724.11l-4.27,1.35h0c-9.32,2.95-30.6,9.73-30.59,10.07-10.21-2-11.75-15.3-3.13-20.43a44.58,44.58,0,0,1,7.15-1.12c8.88-.83,20.67-.74,20.67-.74C368.9,712.82,373.42,717,368.5,724.11Z"/><path class="cls-28" d="M368.5,724.11l-4.27,1.35h0a8.24,8.24,0,0,1-1.07-.43l-25.5-11c8.88-.83,20.67-.74,20.67-.74C368.9,712.82,373.42,717,368.5,724.11Z"/><path class="cls-22" d="M308.85,698.17c0-.18.06-.37.1-.54.65-6.59,24.17-4.08,23.53,2.51a7.25,7.25,0,0,1,0,1.54l-.14,1.1a6.6,6.6,0,0,1-8.08,5.65l-9.84-2.26a7.29,7.29,0,0,1-5.53-8"/><path class="cls-29" d="M306.15,741.5l33-6.24-3.72-22.32a2.52,2.52,0,0,0-2.76-2.08l-35,3c-6,1.2-8.84,8.27-6.86,14.92,2.07,6.93,9.18,13.41,15.4,12.69"/><path class="cls-29" d="M308.47,712.48a143.47,143.47,0,0,0-17.66,2.38l-9,1.39-3.88.6-18.46,2.85c-5.23.71-11.08,8.67-10.63,15.42l.47,1.47h0l6,18.38v0l16,48.79,68-17.91-2-7.6-.93-3.47-6.31-23.58L325.77,735l-2.38-8.89S315.64,712.2,308.47,712.48Z"/><path class="cls-22" d="M336.79,793.88l-.2,3.37-.18,3.16-.16,2.7-18.76-.71-43.8-10.75-13.55-22.39c-.15-.26-.3-.52-.44-.78-4-7.08-6.53-13.18-1.53-18.45a12.18,12.18,0,0,1,7.67-3.75A13.41,13.41,0,0,1,277.39,751l4.92,12.18,7.49,15.77,26.88,8.54h0l5.68,1.8,2.77.88,4.12,1.31,6.92,2.19Z"/><path class="cls-22" d="M356,802.4a5.61,5.61,0,0,1-.06.59,5.69,5.69,0,0,1-.18.86L332.33,803a6.85,6.85,0,0,1-.29-2.44l.06-1.1a6.84,6.84,0,0,1,1-3.2,6.61,6.61,0,0,1,3.05-2.55,6.74,6.74,0,0,1,3.62-.41l10,1.58A7.3,7.3,0,0,1,356,802.4"/><path class="cls-29" d="M278.05,731.11l8.57,31L258,768.87a3.35,3.35,0,0,1-3.7-2.67l-6.6-27.59c-.84-6.83.84-12.68,7-14.14l8.87-2.09a12.24,12.24,0,0,1,14.39,8.73"/><path class="cls-22" d="M367.66,707,332,699c-2.31-4.88-14.45.76-12.14,5.64l45,19C373,727.75,375.78,711.05,367.66,707Z"/><path class="cls-30" d="M417.92,751.66l-4.55,47.74v.24l-78.54,4c0-.08,0-.16,0-.24l4.53-47.74a4.55,4.55,0,0,1,.5-1.71,5.24,5.24,0,0,1,1.27-1.58,4.08,4.08,0,0,1,.61-.42,4.56,4.56,0,0,1,2.13-.67l70.23-3.61a3.57,3.57,0,0,1,3.83,3.95"/><path class="cls-31" d="M419.31,751.59a4.75,4.75,0,0,0-5.11-5.27L344,749.93a6.07,6.07,0,0,0-2.84.89,6.26,6.26,0,0,0-.82.57,6.8,6.8,0,0,0-1.69,2.09,5.9,5.9,0,0,0-.66,2.29l-4.54,47.75c0,.08,0,.15,0,.23l-15.42.8A2.23,2.23,0,0,0,315.9,807l.1,1.13a2.72,2.72,0,0,0,2.82,2.47l96.11-5-.16-6.07h0a1,1,0,0,0,0-.24Zm-5.94,47.81v.24l-78.54,4c0-.08,0-.16,0-.24l4.53-47.74a4.55,4.55,0,0,1,.5-1.71,5.12,5.12,0,0,1,1.28-1.58,4.2,4.2,0,0,1,.6-.42,4.56,4.56,0,0,1,2.13-.67l70.23-3.61a3.57,3.57,0,0,1,3.83,3.95Z"/><path class="cls-30" d="M413.41,801v3.28l-94.71,4.87a1.26,1.26,0,0,1-1.31-1.14l-.09-1.13a.88.88,0,0,1,.84-1Z"/><polygon class="cls-31" points="328.96 807.8 323.94 808.06 323.82 806.66 328.84 806.4 328.96 807.8"/><path class="cls-31" d="M331.07,807.7h-.24a.73.73,0,0,1-.75-.67.67.67,0,0,1,.64-.73H331a.73.73,0,0,1,.76.66.68.68,0,0,1-.64.74"/><polygon class="cls-31" points="411.26 804.73 409.87 804.8 409.65 802.25 411.05 802.18 411.26 804.73"/><polygon class="cls-31" points="408.26 804.88 406.87 804.96 406.65 802.41 408.05 802.33 408.26 804.88"/><polygon class="cls-31" points="405.26 805.04 403.86 805.11 403.64 802.56 405.04 802.49 405.26 805.04"/><path class="cls-32" d="M371.08,775.66a6.15,6.15,0,0,0,6.61,6.82,8.46,8.46,0,0,0,7.77-7.56,6.14,6.14,0,0,0-6.61-6.81,8.45,8.45,0,0,0-7.77,7.55"/><path class="cls-33" d="M377.64,783.17a6.73,6.73,0,0,1-7.25-7.47,9.28,9.28,0,0,1,8.52-8.29,6.75,6.75,0,0,1,7.25,7.48,9.27,9.27,0,0,1-8.52,8.28m1.16-14.36a7.64,7.64,0,0,0-7,6.82,5.55,5.55,0,0,0,6,6.15,7.62,7.62,0,0,0,7-6.82,5.54,5.54,0,0,0-6-6.15"/><text class="cls-34" transform="translate(532.45 355.81)">C<tspan class="cls-10" x="18.82" y="0">ON</tspan><tspan class="cls-11" x="63.51" y="0">T</tspan><tspan class="cls-12" x="79.47" y="0">A</tspan><tspan class="cls-13" x="98.96" y="0">C</tspan><tspan class="cls-14" x="118.16" y="0">T</tspan></text><path class="cls-35" d="M286.79,284.82c.08-.25.17-.5.27-.74C287,284.32,286.87,284.57,286.79,284.82Zm621.48-8.49a26.12,26.12,0,0,0-2.14-2.2A26.12,26.12,0,0,1,908.27,276.33ZM293,275s0,0,0,0S293,275,293,275Zm-6.19,643.64c.08.21.15.42.24.64C287,919,286.9,918.8,286.82,918.59ZM914.66,910a25.73,25.73,0,0,1-3.77,13.44,26.37,26.37,0,0,1-2.18,3.05,25.46,25.46,0,0,1-3.53,3.51,25.46,25.46,0,0,0,3.53-3.51,26.37,26.37,0,0,0,2.18-3.05A25.73,25.73,0,0,0,914.66,910V302.84h0Zm0-616.65a25.78,25.78,0,0,0-2-10.1c-.33-.77-.7-1.53-1.1-2.26.4.73.77,1.49,1.1,2.26a25.78,25.78,0,0,1,2,10.1Z"/><g class="cls-36"><text class="cls-37" transform="translate(532.45 355.81)">C<tspan class="cls-10" x="18.82" y="0">ON</tspan><tspan class="cls-11" x="63.51" y="0">T</tspan><tspan class="cls-12" x="79.47" y="0">A</tspan><tspan class="cls-13" x="98.96" y="0">C</tspan><tspan class="cls-14" x="118.16" y="0">T</tspan></text><text class="cls-34" transform="translate(532.45 355.81)">C<tspan class="cls-10" x="18.82" y="0">ON</tspan><tspan class="cls-11" x="63.51" y="0">T</tspan><tspan class="cls-12" x="79.47" y="0">A</tspan><tspan class="cls-13" x="98.96" y="0">C</tspan><tspan class="cls-14" x="118.16" y="0">T</tspan></text></g><path class="cls-38" d="M892.34,257.49H307.66A30.51,30.51,0,0,0,277.19,288V657.58l-11.33,2.59a16.19,16.19,0,0,0-12,20.31l2.44,8.87a7.92,7.92,0,0,0-.25,5.37,9.33,9.33,0,0,0,1.33,2.83l-.39.05c-21.4,3.29-37.62,21.07-36.77,40.07a32.26,32.26,0,0,0,.83,6l17.3,73.16a44.4,44.4,0,0,0,23.15,29.49c-3.78,3.5-4.91,8.13-1.38,14.29,2,3.54,8.34,5.92,17,7.4v47.14a30.36,30.36,0,0,0,9.05,21.64H274.59a8.9,8.9,0,0,0-8.9,8.91h1.95a8.42,8.42,0,1,0,12.93,0h71.82a8.42,8.42,0,1,0,12.93,0h1.95v-.09H892.34a30.5,30.5,0,0,0,30.47-30.46V288A30.51,30.51,0,0,0,892.34,257.49ZM289.93,934.63c-.63-.57-1.22-1.17-1.79-1.79C288.71,933.46,289.3,934.06,289.93,934.63ZM282.47,923a26.48,26.48,0,0,1-1.05-5.14,26.82,26.82,0,0,1-.13-2.7h0a26.82,26.82,0,0,0,.13,2.7,26.48,26.48,0,0,0,1.05,5.14c.26.83.56,1.64.89,2.42C283,924.59,282.73,923.78,282.47,923Zm2.64,5.83a25.15,25.15,0,0,0,2.2,3.1A25.15,25.15,0,0,1,285.11,928.78ZM893.7,941.44a23.26,23.26,0,0,0,2.66-.27A23.26,23.26,0,0,1,893.7,941.44Zm25-26.33a26.38,26.38,0,0,1-19.78,25.54,26.38,26.38,0,0,0,19.78-25.54V297.63h0V288a26.37,26.37,0,0,0-26.37-26.37H307.66A26.37,26.37,0,0,0,281.29,288h0a26.37,26.37,0,0,1,26.37-26.37H892.34A26.37,26.37,0,0,1,918.71,288Z"/><rect class="cls-39" width="1200" height="1200"/></g></g></svg>