<?xml version="1.0" encoding="iso-8859-1"?>
<!-- Uploaded to: SVG Repo, www.svgrepo.com, Generator: SVG Repo Mixer Tools -->
<svg height="800px" width="800px" version="1.1" id="Layer_1" xmlns="http://www.w3.org/2000/svg" xmlns:xlink="http://www.w3.org/1999/xlink" 
	 viewBox="0 0 512 512" xml:space="preserve">
<g transform="translate(1 1)">
	<path style="fill:#FFE100;" d="M502.467,255c0,136.533-110.933,247.467-247.467,247.467S7.533,391.533,7.533,255
		S118.467,7.533,255,7.533S502.467,118.467,502.467,255"/>
	<path style="fill:#FFA800;" d="M489.667,333.507C444.44,323.267,344.6,306.2,344.6,306.2c-23.04-2.56-19.627-26.453-21.333-43.52
		c-2.56-24.747-13.653-47.787-42.667-58.027c0,0-0.853,0-1.707,0c-11.947-1.707-22.187-7.68-27.307-16.213
		c-1.707-3.413-3.413-5.973-5.973-8.533c-9.387-11.947-27.307-17.92-44.373-13.653C132.12,183.32,33.133,216.6,8.387,231.107
		C7.533,238.787,7.533,247.32,7.533,255c0,136.533,110.933,247.467,247.467,247.467C364.227,502.467,456.387,431.64,489.667,333.507
		"/>
	<g>
		<path style="fill:#FFE100;" d="M75.8,314.733H41.667v-42.667c0-9.387,7.68-17.067,17.067-17.067S75.8,262.68,75.8,272.067V314.733
			z"/>
		<path style="fill:#FFE100;" d="M169.667,297.667H127v-38.4c0-11.947,9.387-21.333,21.333-21.333
			c11.947,0,21.333,9.387,21.333,21.333V297.667z"/>
		<path style="fill:#FFE100;" d="M169.667,391.533H127v-38.4c0-11.947,9.387-21.333,21.333-21.333
			c11.947,0,21.333,9.387,21.333,21.333V391.533z"/>
		<path style="fill:#FFE100;" d="M263.533,289.133h-42.667v-38.4c0-11.947,9.387-21.333,21.333-21.333s21.333,9.387,21.333,21.333
			V289.133z"/>
		<path style="fill:#FFE100;" d="M263.533,391.533h-42.667V344.6c0-11.947,9.387-21.333,21.333-21.333s21.333,9.387,21.333,21.333
			V391.533z"/>
		<path style="fill:#FFE100;" d="M348.867,400.067H306.2v-38.4c0-11.947,9.387-21.333,21.333-21.333s21.333,9.387,21.333,21.333
			V400.067z"/>
		<path style="fill:#FFE100;" d="M442.733,408.6h-42.667v-29.867c0-11.947,9.387-21.333,21.333-21.333s21.333,9.387,21.333,21.333
			V408.6z"/>
		<path style="fill:#FFE100;" d="M336.067,442.733c-11.947,0-21.333,9.387-21.333,21.333v30.72
			c14.507-3.413,29.013-8.533,42.667-14.507v-16.213C357.4,452.12,348.013,442.733,336.067,442.733"/>
		<path style="fill:#FFE100;" d="M242.2,442.733c-11.947,0-21.333,9.387-21.333,21.333v35.84c11.093,1.707,22.187,2.56,34.133,2.56
			c2.56,0,5.973,0,8.533,0v-38.4C263.533,452.12,254.147,442.733,242.2,442.733"/>
		<path style="fill:#FFE100;" d="M148.333,442.733c-11.947,0-21.333,9.387-21.333,21.333v2.56
			c13.653,8.533,27.307,15.36,42.667,20.48v-23.04C169.667,452.12,160.28,442.733,148.333,442.733"/>
		<path style="fill:#FFE100;" d="M58.733,348.867c-9.387,0-17.067,7.68-17.067,17.067v14.507
			c5.973,9.387,11.947,19.627,19.627,28.16H75.8v-42.667C75.8,356.547,68.12,348.867,58.733,348.867"/>
	</g>
	<path style="fill:#FFA800;" d="M457.24,122.733c-0.853-5.12-1.707-9.387-2.56-13.653c-23.893-32.427-56.32-59.733-93.867-76.8
		c-5.973,6.827-10.24,16.213-10.24,26.453c0,3.413,0.853,6.827,0.853,9.387c-14.507,2.56-25.6,14.507-25.6,29.867
		c0,16.213,13.653,29.867,29.867,29.867h84.48C447,127,452.12,125.293,457.24,122.733"/>
	<g>
		<path style="fill:#0C0C0C;" d="M84.333,323.267h-51.2v-51.2c0-14.507,11.093-25.6,25.6-25.6s25.6,11.093,25.6,25.6V323.267z
			 M50.2,306.2h17.067v-34.133c0-5.12-3.413-8.533-8.533-8.533s-8.533,3.413-8.533,8.533V306.2z"/>
		<path style="fill:#0C0C0C;" d="M178.2,306.2h-59.733v-46.933c0-16.213,13.653-29.867,29.867-29.867s29.867,13.653,29.867,29.867
			V306.2z M135.533,289.133h25.6v-29.867c0-6.827-5.973-12.8-12.8-12.8s-12.8,5.973-12.8,12.8V289.133z"/>
		<path style="fill:#0C0C0C;" d="M178.2,400.067h-59.733v-46.933c0-16.213,13.653-29.867,29.867-29.867S178.2,336.92,178.2,353.133
			V400.067z M135.533,383h25.6v-29.867c0-6.827-5.973-12.8-12.8-12.8s-12.8,5.973-12.8,12.8V383z"/>
		<path style="fill:#0C0C0C;" d="M272.067,297.667h-59.733v-46.933c0-16.213,13.653-29.867,29.867-29.867
			s29.867,13.653,29.867,29.867V297.667z M229.4,280.6H255v-29.867c0-6.827-5.973-12.8-12.8-12.8s-12.8,5.973-12.8,12.8V280.6z"/>
		<path style="fill:#0C0C0C;" d="M272.067,400.067h-59.733V344.6c0-16.213,13.653-29.867,29.867-29.867s29.867,13.653,29.867,29.867
			V400.067z M229.4,383H255v-38.4c0-6.827-5.973-12.8-12.8-12.8s-12.8,5.973-12.8,12.8V383z"/>
		<path style="fill:#0C0C0C;" d="M357.4,408.6h-59.733v-46.933c0-16.213,13.653-29.867,29.867-29.867s29.867,13.653,29.867,29.867
			V408.6z M314.733,391.533h25.6v-29.867c0-6.827-5.973-12.8-12.8-12.8s-12.8,5.973-12.8,12.8V391.533z"/>
		<path style="fill:#0C0C0C;" d="M451.267,417.133h-59.733v-38.4c0-16.213,13.653-29.867,29.867-29.867s29.867,13.653,29.867,29.867
			V417.133z M408.6,400.067h25.6v-21.333c0-6.827-5.973-12.8-12.8-12.8s-12.8,5.973-12.8,12.8V400.067z"/>
		<path style="fill:#0C0C0C;" d="M255,511C114.2,511-1,395.8-1,255c0-75.093,32.427-145.067,89.6-194.56
			c3.413-3.413,9.387-2.56,11.947,0.853c3.413,3.413,2.56,9.387-0.853,11.947C46.787,119.32,16.067,185.027,16.067,255
			c0,131.413,107.52,238.933,238.933,238.933S493.933,386.413,493.933,255S386.413,16.067,255,16.067
			c-37.547,0-72.533,8.533-105.813,24.747c-4.267,1.707-9.387,0-11.093-4.267s0-9.387,4.267-11.093C177.347,7.533,214.893-1,255-1
			c140.8,0,256,115.2,256,256S395.8,511,255,511z"/>
		<path style="fill:#0C0C0C;" d="M127,50.2c0,5.12-3.413,8.533-8.533,8.533s-8.533-3.413-8.533-8.533s3.413-8.533,8.533-8.533
			S127,45.08,127,50.2"/>
		<path style="fill:#0C0C0C;" d="M255,511C114.2,511-1,395.8-1,255c0-7.68,0-16.213,0.853-24.747v-4.267l4.267-2.56
			c26.453-15.36,128.853-49.493,195.413-65.707c20.48-5.12,41.813,1.707,53.76,17.067c2.56,2.56,4.267,5.973,5.973,9.387
			c4.267,6.827,11.947,11.093,20.48,11.947c1.707,0,2.56,0,3.413,0.853c28.16,10.24,44.373,32.427,47.787,64.853
			c0,3.413,0.853,5.973,0.853,9.387c0.853,18.773,2.56,24.747,12.8,26.453c1.707,0,100.693,17.067,145.92,28.16l9.387,1.707
			l-3.413,8.533C462.36,441.027,365.08,511,255,511z M16.92,237.08c-0.853,5.973-0.853,11.947-0.853,17.92
			c0,131.413,107.52,238.933,238.933,238.933c99.84,0,187.733-61.44,223.573-153.6c-47.787-10.24-133.973-25.6-134.827-25.6
			c-25.6-3.413-27.307-26.453-28.16-41.813c0-2.56,0-5.973-0.853-8.533c-2.56-25.6-14.507-42.667-36.693-50.347
			c-14.507-1.707-27.307-9.387-34.133-20.48c-1.707-2.56-3.413-5.12-5.12-7.68c-6.827-9.387-22.187-13.653-35.84-10.24
			C136.387,191,45.933,222.573,16.92,237.08z"/>
		<path style="fill:#0C0C0C;" d="M306.2,505.88v-41.813c0-16.213,13.653-29.867,29.867-29.867s29.867,13.653,29.867,29.867V485.4
			l-5.12,2.56c-14.507,6.827-29.013,11.947-44.373,15.36L306.2,505.88z M336.067,451.267c-6.827,0-12.8,5.973-12.8,12.8v19.627
			c8.533-2.56,17.067-5.973,25.6-9.387v-10.24C348.867,457.24,342.893,451.267,336.067,451.267z M357.4,480.28L357.4,480.28
			L357.4,480.28z"/>
		<path style="fill:#0C0C0C;" d="M255,511c-11.093,0-23.04-0.853-34.987-2.56l-7.68-0.853v-43.52
			c0-16.213,13.653-29.867,29.867-29.867s29.867,13.653,29.867,29.867v46.08h-9.387C260.12,511,257.56,511,255,511z
			 M263.533,502.467L263.533,502.467L263.533,502.467z M229.4,492.227c8.533,0.853,17.067,1.707,25.6,1.707v-29.867
			c0-6.827-5.973-12.8-12.8-12.8s-12.8,5.973-12.8,12.8V492.227z"/>
		<path style="fill:#0C0C0C;" d="M178.2,499.907l-11.093-4.267c-15.36-5.973-29.867-12.8-44.373-21.333l-4.267-2.56v-7.68
			c0-16.213,13.653-29.867,29.867-29.867s29.867,13.653,29.867,29.867V499.907z M135.533,462.36c8.533,5.12,17.067,9.387,25.6,12.8
			v-11.093c0-6.827-5.973-12.8-12.8-12.8C142.36,451.267,136.387,455.533,135.533,462.36z"/>
		<path style="fill:#0C0C0C;" d="M84.333,417.133H57.027l-2.56-3.413c-7.68-9.387-14.507-18.773-19.627-29.013L33.133,383v-17.067
			c0-14.507,11.093-25.6,25.6-25.6s25.6,11.093,25.6,25.6V417.133z M65.56,400.067h1.707v-34.133c0-5.12-3.413-8.533-8.533-8.533
			s-8.533,3.413-8.533,8.533v11.947C54.467,385.56,59.587,393.24,65.56,400.067z"/>
		<path style="fill:#0C0C0C;" d="M441.027,135.533h-84.48c-21.333,0-38.4-17.067-38.4-38.4c0-16.213,10.24-29.867,23.893-35.84
			c0-0.853,0-2.56,0-3.413c0-11.947,4.267-23.04,12.8-32.427l4.267-4.267l5.973,2.56c38.4,17.92,71.68,45.227,96.427,79.36
			l0.853,1.707v1.707c0.853,5.12,1.707,9.387,2.56,14.507l0.853,5.973l-5.12,3.413C455.533,133.827,447.853,135.533,441.027,135.533
			z M363.373,41.667c-2.56,5.12-4.267,10.24-4.267,15.36c0,2.56,0,5.12,0.853,7.68l2.56,9.387l-9.387,1.707
			c-10.24,1.707-17.92,11.093-17.92,21.333c0,11.947,9.387,21.333,21.333,21.333h84.48c2.56,0,4.267,0,6.827-0.853
			c0-1.707-0.853-3.413-0.853-5.973C423.96,82.627,395.8,58.733,363.373,41.667z"/>
	</g>
</g>
</svg>